<svg width="42" height="42" viewBox="0 0 42 42" fill="none" xmlns="http://www.w3.org/2000/svg">
<path d="M25.928 7.79976C26.1801 7.55991 26.5171 7.42997 26.8649 7.43851C27.2128 7.44704 27.543 7.59334 27.783 7.84526L39.4502 20.0953C39.6824 20.3393 39.8119 20.6632 39.8119 21C39.8119 21.3368 39.6824 21.6608 39.4502 21.9048L27.783 34.1548C27.6655 34.2846 27.5231 34.3897 27.3644 34.4637C27.2056 34.5377 27.0337 34.5792 26.8586 34.5857C26.6836 34.5922 26.509 34.5637 26.3452 34.5016C26.1814 34.4396 26.0316 34.3455 25.9048 34.2247C25.7779 34.1039 25.6765 33.9589 25.6065 33.7984C25.5366 33.6378 25.4995 33.4648 25.4974 33.2897C25.4953 33.1145 25.5283 32.9407 25.5945 32.7785C25.6606 32.6163 25.7585 32.469 25.8825 32.3453L35.4375 22.3125H3.5C3.1519 22.3125 2.81806 22.1742 2.57192 21.9281C2.32578 21.6819 2.1875 21.3481 2.1875 21C2.1875 20.6519 2.32578 20.3181 2.57192 20.0719C2.81806 19.8258 3.1519 19.6875 3.5 19.6875H35.4375L25.8825 9.65476C25.6427 9.40269 25.5127 9.06569 25.5212 8.71784C25.5298 8.37 25.6761 8.03978 25.928 7.79976Z" fill="white"/>
</svg>
