<svg width="32" height="20" viewBox="0 0 32 20" fill="none" xmlns="http://www.w3.org/2000/svg">
<path d="M10.4167 1.36561C10.5667 1.21558 10.651 1.0121 10.651 0.799925C10.651 0.587752 10.5667 0.384269 10.4167 0.23424C10.2666 0.0842109 10.0632 -7.49171e-05 9.85098 -7.48644e-05C9.6388 -7.48011e-05 9.43532 0.0842109 9.28529 0.23424L0.234324 9.28521C0.0842957 9.43524 8.66108e-06 9.63872 9.27221e-06 9.85089C9.89388e-06 10.0631 0.0842951 10.2665 0.234324 10.4166L9.28529 19.4675C9.43532 19.6176 9.6388 19.7019 9.85098 19.7019C10.0631 19.7019 10.2666 19.6176 10.4167 19.4675C10.5667 19.3175 10.651 19.114 10.651 18.9019C10.651 18.6897 10.5667 18.4862 10.4167 18.3362L2.73126 10.6508L30.2157 10.6519C30.4281 10.6519 30.6318 10.5675 30.7821 10.4173C30.9323 10.2671 31.0167 10.0633 31.0167 9.85089C31.0167 9.63845 30.9323 9.43471 30.7821 9.28449C30.6318 9.13427 30.4281 9.04988 30.2157 9.04988L2.73126 9.05101L10.4167 1.36561Z" fill="#333333"/>
</svg>
