<svg width="32" height="20" viewBox="0 0 32 20" fill="none" xmlns="http://www.w3.org/2000/svg">
<path d="M20.6 1.36561C20.45 1.21558 20.3657 1.0121 20.3657 0.799925C20.3657 0.587752 20.45 0.384269 20.6 0.23424C20.75 0.0842109 20.9535 -7.49171e-05 21.1657 -7.48644e-05C21.3779 -7.48011e-05 21.5813 0.0842109 21.7314 0.23424L30.7823 9.28521C30.9324 9.43524 31.0167 9.63872 31.0167 9.85089C31.0167 10.0631 30.9324 10.2665 30.7823 10.4166L21.7314 19.4675C21.5813 19.6176 21.3779 19.7019 21.1657 19.7019C20.9535 19.7019 20.75 19.6176 20.6 19.4675C20.45 19.3175 20.3657 19.114 20.3657 18.9019C20.3657 18.6897 20.45 18.4862 20.6 18.3362L28.2854 10.6508L0.801011 10.6519C0.588569 10.6519 0.38483 10.5675 0.234611 10.4173C0.0843929 10.2671 -1.19498e-07 10.0633 1.22847e-07 9.85089C3.7046e-07 9.63845 0.0843931 9.43471 0.234611 9.28449C0.384829 9.13427 0.58857 9.04988 0.801011 9.04988L28.2854 9.05101L20.6 1.36561Z" fill="#14272E"/>
</svg>
