<svg width="20" height="20" viewBox="0 0 20 20" fill="none" xmlns="http://www.w3.org/2000/svg">
<path d="M13.1822 4.69704C13.0885 4.60327 13.0358 4.4761 13.0358 4.34349C13.0358 4.21088 13.0885 4.0837 13.1822 3.98994C13.276 3.89617 13.4032 3.84349 13.5358 3.84349C13.6684 3.84349 13.7956 3.89617 13.8894 3.98994L19.5462 9.64679C19.64 9.74056 19.6927 9.86774 19.6927 10.0003C19.6927 10.133 19.64 10.2601 19.5462 10.3539L13.8894 16.0108C13.7956 16.1045 13.6684 16.1572 13.5358 16.1572C13.4032 16.1572 13.276 16.1045 13.1822 16.0108C13.0885 15.917 13.0358 15.7898 13.0358 15.6572C13.0358 15.5246 13.0885 15.3974 13.1822 15.3036L17.9856 10.5003L0.807875 10.501C0.6751 10.501 0.547762 10.4482 0.453876 10.3543C0.359989 10.2605 0.307244 10.1331 0.307244 10.0003C0.307244 9.86757 0.359989 9.74023 0.453876 9.64634C0.547762 9.55246 0.6751 9.49971 0.807875 9.49971L17.9856 9.50042L13.1822 4.69704Z" fill="#333333"/>
</svg>
